<?xml version="1.0" encoding="UTF-8" standalone="no"?>
<svg
   xmlns:sketch="http://www.bohemiancoding.com/sketch/ns"
   xmlns:dc="http://purl.org/dc/elements/1.1/"
   xmlns:cc="http://creativecommons.org/ns#"
   xmlns:rdf="http://www.w3.org/1999/02/22-rdf-syntax-ns#"
   xmlns:svg="http://www.w3.org/2000/svg"
   xmlns="http://www.w3.org/2000/svg"
   xmlns:xlink="http://www.w3.org/1999/xlink"
   xmlns:sodipodi="http://sodipodi.sourceforge.net/DTD/sodipodi-0.dtd"
   xmlns:inkscape="http://www.inkscape.org/namespaces/inkscape"
   width="128px"
   height="128px"
   viewBox="0 0 128 128"
   version="1.1"
   id="svg2"
   inkscape:version="0.48.4 r9939"
   sodipodi:docname="icon.svg">
  <metadata
     id="metadata14">
    <rdf:RDF>
      <cc:Work
         rdf:about="">
        <dc:format>image/svg+xml</dc:format>
        <dc:type
           rdf:resource="http://purl.org/dc/dcmitype/StillImage" />
        <dc:title>empty</dc:title>
      </cc:Work>
    </rdf:RDF>
  </metadata>
  <sodipodi:namedview
     pagecolor="#ffffff"
     bordercolor="#666666"
     borderopacity="1"
     objecttolerance="10"
     gridtolerance="10"
     guidetolerance="10"
     inkscape:pageopacity="0"
     inkscape:pageshadow="2"
     inkscape:window-width="1317"
     inkscape:window-height="744"
     id="namedview12"
     showgrid="false"
     inkscape:zoom="1.1660156"
     inkscape:cx="66.98852"
     inkscape:cy="64"
     inkscape:window-x="49"
     inkscape:window-y="24"
     inkscape:window-maximized="1"
     inkscape:current-layer="svg2" />
  <!-- Generator: Sketch 3.0.2 (7799) - http://www.bohemiancoding.com/sketch -->
  <title
     id="title4">empty</title>
  <description
     id="description6">Created with Sketch.</description>
  <defs
     id="defs8">
    <linearGradient
       id="linearGradient3761">
      <stop
         style="stop-color:#3c91ea;stop-opacity:1;"
         offset="0"
         id="stop3763" />
      <stop
         style="stop-color:#125caa;stop-opacity:1;"
         offset="1"
         id="stop3765" />
    </linearGradient>
    <linearGradient
       inkscape:collect="always"
       xlink:href="#linearGradient3761"
       id="linearGradient3905"
       gradientUnits="userSpaceOnUse"
       x1="129.66949"
       y1="65.8983"
       x2="129.66949"
       y2="188.59828" />
    <mask
       maskUnits="userSpaceOnUse"
       id="mask3907">
      <g
         id="g3909"
         transform="matrix(0.10267387,0,0,-0.10267387,-101.42961,191.77885)"
         style="fill:#f8ee1f;fill-opacity:1">
        <path
           style="fill:#f8ee1f;fill-opacity:1"
           d="m 2009.014,951.78702 c -11.9569,0 -22.3357,-4.27957 -31.0734,-13.0174 -8.7379,-8.73776 -13.0175,-19.11662 -13.0175,-31.07359 l 0,-132.48292 -110.4372,0 c -12.417,0 -25.8255,-3.04966 -40.3118,-9.02812 -14.4865,-5.97852 -26.1152,-13.30767 -34.8531,-22.0455 L 1642.639,607.6674 c -5.9784,-5.97849 -11.1678,-12.96769 -15.5367,-20.78574 -4.3688,-7.81806 -7.5886,-14.78726 -9.6581,-20.9957 -2.0693,-6.20845 -3.4892,-14.80748 -4.4089,-25.61477 -0.92,-10.80728 -1.4498,-18.66641 -1.6798,-23.72515 -0.2299,-5.05873 -0.2299,-13.82772 0,-26.24463 0.23,-12.41689 0.2094,-20.46597 0.2094,-24.14506 l 0,-220.66486 c -11.9568,0 -22.1258,-4.48945 -30.8636,-13.22728 -8.7377,-8.73785 -13.2273,-18.90669 -13.2273,-30.86369 0,-6.89827 0.89,-12.97756 2.7294,-18.26625 1.8396,-5.28872 5.0792,-9.58822 9.4481,-12.8074 4.369,-3.21915 8.1185,-5.90888 11.3377,-7.97836 3.2193,-2.06946 8.5785,-3.50934 16.1667,-4.19913 7.588,-0.68982 12.7774,-1.02984 15.5368,-1.25974 2.7594,-0.22992 8.6687,-0.22992 17.6364,0 8.9677,0.2299 14.1571,0.20995 15.5369,0.20995 l 44.0909,0 c 0,-48.74779 17.1581,-90.223153 51.6495,-124.714489 34.4913,-34.4913403 76.1765,-51.859389 124.9244,-51.859389 48.7477,0 90.4331,17.3680487 124.9245,51.859389 34.4914,34.491336 51.6494,75.966699 51.6494,124.714489 l 264.9657,0 c 0,-48.74779 17.1581,-90.223153 51.6495,-124.714489 34.4914,-34.4913403 76.1768,-51.859389 124.9245,-51.859389 48.7477,0 90.433,17.3680487 124.9244,51.859389 34.4914,34.491336 51.6494,75.966699 51.6494,124.714489 1.3797,0 6.5692,0.0196 15.537,-0.20995 8.9677,-0.22992 14.877,-0.22992 17.6362,0 2.7594,0.2299 7.9488,0.56992 15.5369,1.25974 7.5882,0.68979 12.9475,2.12967 16.1666,4.19913 3.2194,2.06948 6.9688,4.75921 11.3377,7.97836 4.369,3.21918 7.3987,7.51868 9.2383,12.8074 1.8394,5.28869 2.9394,11.36798 2.9394,18.26625 l 0,477.86222 c -8.9366,150.76926 -133.889,270.40223 -286.8015,270.84462 l 0,1.67966 -463.7952,0 z m -153.0586,-264.75585 108.9677,0 0,-176.5739 -264.9657,0 0,20.57581 c 0,5.97849 2.1597,10.97794 6.2986,15.11691 l 134.3725,134.58246 c 4.1391,4.13895 9.3484,6.29872 15.3269,6.29872 z m 20.5759,-441.53968 c 23.9139,0 44.6717,-8.76902 62.1473,-26.24463 17.4755,-17.47561 26.2445,-38.23326 26.2445,-62.14727 0,-23.91402 -8.769,-44.46172 -26.2445,-61.937334 -17.4756,-17.475615 -38.2334,-26.244633 -62.1473,-26.244633 -23.9141,0 -44.6717,8.769018 -62.1473,26.244633 -17.4757,17.475614 -26.0348,38.023314 -26.0348,61.937334 0,23.91401 8.5591,44.67166 26.0348,62.14727 17.4756,17.47561 38.2332,26.24463 62.1473,26.24463 z m 618.1134,0 c 23.9141,0 44.6717,-8.76902 62.1473,-26.24463 17.4757,-17.47561 26.0348,-38.23326 26.0348,-62.14727 0,-23.91402 -8.5591,-44.46172 -26.0348,-61.937334 -17.4756,-17.475615 -38.2332,-26.244633 -62.1473,-26.244633 -23.9139,0 -44.6716,8.769018 -62.1472,26.244633 -17.4756,17.475614 -26.2446,38.023314 -26.2446,61.937334 0,23.91401 8.769,44.67166 26.2446,62.14727 17.4756,17.47561 38.2333,26.24463 62.1472,26.24463 z"
           id="path3911"
           inkscape:connector-curvature="0" />
      </g>
    </mask>
  </defs>
  <path
     transform="translate(-65.355927,-63.728466)"
     d="m 192.54237,128.27118 a 63.18644,63.18644 0 1 1 -126.372883,0 63.18644,63.18644 0 1 1 126.372883,0 z"
     sodipodi:ry="63.18644"
     sodipodi:rx="63.18644"
     sodipodi:cy="128.27118"
     sodipodi:cx="129.35593"
     id="path3903"
     style="fill:url(#linearGradient3905);fill-opacity:1;fill-rule:evenodd;stroke:none"
     sodipodi:type="arc"
     inkscape:export-filename="/home/bruno/Dev/firefox-os/carrodolixo/img/icons/icon128x128.png"
     inkscape:export-xdpi="90"
     inkscape:export-ydpi="90" />
  <path
     sodipodi:type="arc"
     style="fill:#f8ee1f;fill-opacity:1;fill-rule:evenodd;stroke:none;opacity:0.90946502"
     id="path2991"
     sodipodi:cx="129.35593"
     sodipodi:cy="128.27118"
     sodipodi:rx="63.18644"
     sodipodi:ry="63.18644"
     d="m 192.54237,128.27118 a 63.18644,63.18644 0 1 1 -126.372883,0 63.18644,63.18644 0 1 1 126.372883,0 z"
     transform="translate(-65.355927,-63.728466)"
     mask="url(#mask3907)"
     inkscape:export-filename="/home/bruno/Dev/firefox-os/carrodolixo/img/icons/icon128x128.png"
     inkscape:export-xdpi="90"
     inkscape:export-ydpi="90" />
  <g
     id="Page-1"
     sketch:type="MSPage"
     transform="matrix(0.9,0,0,0.9,6.4,6.4)"
     style="fill:none;stroke:none" />
  <path
     style="fill:#f8ee1f;fill-opacity:1"
     d="m 42.543963,30.543591 c 3.63009,35.105355 33.30987,62.5 69.374997,62.5 1.4676,0 2.89865,-0.06691 4.34375,-0.15625 l 0,-34.375 C 115.34515,43.032278 102.52533,30.745263 86.825213,30.699841 l 0,-0.15625 -44.28125,0 z"
     id="path3911-7"
     inkscape:connector-curvature="0"
     inkscape:export-filename="/home/bruno/Dev/firefox-os/carrodolixo/img/icons/icon128x128.png"
     inkscape:export-xdpi="90"
     inkscape:export-ydpi="90" />
</svg>
